<mxfile host="app.diagrams.net" modified="2023-06-05T12:08:52.402Z" agent="Mozilla/5.0 (Windows NT 10.0; Win64; x64) AppleWebKit/537.36 (KHTML, like Gecko) Chrome/114.0.0.0 Safari/537.36" etag="JbMZtUUz2RaE-NKMzVFD" version="21.3.7" type="github">
  <diagram id="prtHgNgQTEPvFCAcTncT" name="Page-1">
    <mxGraphModel dx="1631" dy="-908" grid="0" gridSize="10" guides="1" tooltips="1" connect="1" arrows="1" fold="1" page="0" pageScale="1" pageWidth="827" pageHeight="1169" math="0" shadow="0">
      <root>
        <mxCell id="0" />
        <mxCell id="1" parent="0" />
        <mxCell id="JLOfAjcvKryGRp9el4-2-26" value="学生社团管理系统" style="rounded=0;whiteSpace=wrap;html=1;" parent="1" vertex="1">
          <mxGeometry x="20" y="1261" width="120" height="31" as="geometry" />
        </mxCell>
        <mxCell id="JLOfAjcvKryGRp9el4-2-27" value="" style="endArrow=none;html=1;rounded=0;entryX=0.5;entryY=1;entryDx=0;entryDy=0;exitX=0.5;exitY=0;exitDx=0;exitDy=0;" parent="1" source="JLOfAjcvKryGRp9el4-2-30" target="JLOfAjcvKryGRp9el4-2-26" edge="1">
          <mxGeometry width="50" height="50" relative="1" as="geometry">
            <mxPoint x="80" y="1348" as="sourcePoint" />
            <mxPoint x="78" y="1292" as="targetPoint" />
          </mxGeometry>
        </mxCell>
        <mxCell id="JLOfAjcvKryGRp9el4-2-28" value="" style="endArrow=none;html=1;rounded=0;exitX=0.5;exitY=0;exitDx=0;exitDy=0;entryX=0.5;entryY=0;entryDx=0;entryDy=0;" parent="1" source="JLOfAjcvKryGRp9el4-2-29" target="JLOfAjcvKryGRp9el4-2-31" edge="1">
          <mxGeometry width="50" height="50" relative="1" as="geometry">
            <mxPoint x="-228" y="1348" as="sourcePoint" />
            <mxPoint x="418" y="1346" as="targetPoint" />
            <Array as="points">
              <mxPoint x="-332" y="1351" />
              <mxPoint x="-224" y="1353" />
              <mxPoint x="419" y="1353" />
            </Array>
          </mxGeometry>
        </mxCell>
        <mxCell id="JLOfAjcvKryGRp9el4-2-29" value="用户模块" style="rounded=0;whiteSpace=wrap;html=1;" parent="1" vertex="1">
          <mxGeometry x="-343" y="1371" width="22" height="114" as="geometry" />
        </mxCell>
        <mxCell id="JLOfAjcvKryGRp9el4-2-30" value="社团模块" style="rounded=0;whiteSpace=wrap;html=1;" parent="1" vertex="1">
          <mxGeometry x="69" y="1371" width="22" height="114" as="geometry" />
        </mxCell>
        <mxCell id="JLOfAjcvKryGRp9el4-2-31" value="新闻模块" style="rounded=0;whiteSpace=wrap;html=1;" parent="1" vertex="1">
          <mxGeometry x="408" y="1373" width="22" height="114" as="geometry" />
        </mxCell>
        <mxCell id="JLOfAjcvKryGRp9el4-2-32" value="登录" style="rounded=0;whiteSpace=wrap;html=1;" parent="1" vertex="1">
          <mxGeometry x="-607" y="1562" width="22" height="114" as="geometry" />
        </mxCell>
        <mxCell id="JLOfAjcvKryGRp9el4-2-33" value="注册" style="rounded=0;whiteSpace=wrap;html=1;" parent="1" vertex="1">
          <mxGeometry x="-558" y="1562" width="22" height="114" as="geometry" />
        </mxCell>
        <mxCell id="JLOfAjcvKryGRp9el4-2-34" value="个人信息管理" style="rounded=0;whiteSpace=wrap;html=1;" parent="1" vertex="1">
          <mxGeometry x="-500" y="1562" width="22" height="114" as="geometry" />
        </mxCell>
        <mxCell id="JLOfAjcvKryGRp9el4-2-35" value="申请加入社团" style="rounded=0;whiteSpace=wrap;html=1;" parent="1" vertex="1">
          <mxGeometry x="-443" y="1562" width="22" height="114" as="geometry" />
        </mxCell>
        <mxCell id="JLOfAjcvKryGRp9el4-2-36" value="参与社团活动" style="rounded=0;whiteSpace=wrap;html=1;" parent="1" vertex="1">
          <mxGeometry x="-384" y="1562" width="22" height="114" as="geometry" />
        </mxCell>
        <mxCell id="JLOfAjcvKryGRp9el4-2-37" value="发表评论" style="rounded=0;whiteSpace=wrap;html=1;" parent="1" vertex="1">
          <mxGeometry x="-332" y="1562" width="22" height="114" as="geometry" />
        </mxCell>
        <mxCell id="JLOfAjcvKryGRp9el4-2-38" value="创建社团" style="rounded=0;whiteSpace=wrap;html=1;" parent="1" vertex="1">
          <mxGeometry x="-272" y="1562" width="22" height="114" as="geometry" />
        </mxCell>
        <mxCell id="JLOfAjcvKryGRp9el4-2-39" value="数据可视化" style="rounded=0;whiteSpace=wrap;html=1;" parent="1" vertex="1">
          <mxGeometry x="-215" y="1562" width="22" height="114" as="geometry" />
        </mxCell>
        <mxCell id="JLOfAjcvKryGRp9el4-2-40" value="删除用户" style="rounded=0;whiteSpace=wrap;html=1;" parent="1" vertex="1">
          <mxGeometry x="-157" y="1562" width="22" height="114" as="geometry" />
        </mxCell>
        <mxCell id="JLOfAjcvKryGRp9el4-2-41" value="角色分配" style="rounded=0;whiteSpace=wrap;html=1;" parent="1" vertex="1">
          <mxGeometry x="-104" y="1562" width="22" height="114" as="geometry" />
        </mxCell>
        <mxCell id="JLOfAjcvKryGRp9el4-2-43" value="移出社团成员" style="rounded=0;whiteSpace=wrap;html=1;" parent="1" vertex="1">
          <mxGeometry x="-18" y="1559" width="22" height="114" as="geometry" />
        </mxCell>
        <mxCell id="JLOfAjcvKryGRp9el4-2-44" value="审核加入社团请求" style="rounded=0;whiteSpace=wrap;html=1;" parent="1" vertex="1">
          <mxGeometry x="56" y="1559" width="22" height="114" as="geometry" />
        </mxCell>
        <mxCell id="JLOfAjcvKryGRp9el4-2-45" value="审核社团创建请求" style="rounded=0;whiteSpace=wrap;html=1;" parent="1" vertex="1">
          <mxGeometry x="112" y="1559" width="22" height="114" as="geometry" />
        </mxCell>
        <mxCell id="JLOfAjcvKryGRp9el4-2-46" value="发布活动" style="rounded=0;whiteSpace=wrap;html=1;" parent="1" vertex="1">
          <mxGeometry x="172" y="1562" width="22" height="114" as="geometry" />
        </mxCell>
        <mxCell id="JLOfAjcvKryGRp9el4-2-47" value="编辑活动" style="rounded=0;whiteSpace=wrap;html=1;" parent="1" vertex="1">
          <mxGeometry x="232" y="1562" width="22" height="114" as="geometry" />
        </mxCell>
        <mxCell id="JLOfAjcvKryGRp9el4-2-48" value="删除活动" style="rounded=0;whiteSpace=wrap;html=1;" parent="1" vertex="1">
          <mxGeometry x="289" y="1562" width="22" height="114" as="geometry" />
        </mxCell>
        <mxCell id="JLOfAjcvKryGRp9el4-2-49" value="发布新闻" style="rounded=0;whiteSpace=wrap;html=1;" parent="1" vertex="1">
          <mxGeometry x="376" y="1560.5" width="22" height="114" as="geometry" />
        </mxCell>
        <mxCell id="JLOfAjcvKryGRp9el4-2-50" value="编辑新闻" style="rounded=0;whiteSpace=wrap;html=1;" parent="1" vertex="1">
          <mxGeometry x="452" y="1560.5" width="22" height="114" as="geometry" />
        </mxCell>
        <mxCell id="JLOfAjcvKryGRp9el4-2-51" value="删除新闻" style="rounded=0;whiteSpace=wrap;html=1;" parent="1" vertex="1">
          <mxGeometry x="526" y="1560.5" width="22" height="114" as="geometry" />
        </mxCell>
        <mxCell id="JLOfAjcvKryGRp9el4-2-53" value="" style="endArrow=none;html=1;rounded=0;" parent="1" edge="1">
          <mxGeometry width="50" height="50" relative="1" as="geometry">
            <mxPoint x="-598" y="1511" as="sourcePoint" />
            <mxPoint x="-93" y="1506" as="targetPoint" />
          </mxGeometry>
        </mxCell>
        <mxCell id="JLOfAjcvKryGRp9el4-2-54" value="" style="endArrow=none;html=1;rounded=0;exitX=0.5;exitY=1;exitDx=0;exitDy=0;" parent="1" source="JLOfAjcvKryGRp9el4-2-29" edge="1">
          <mxGeometry width="50" height="50" relative="1" as="geometry">
            <mxPoint x="-444" y="1485" as="sourcePoint" />
            <mxPoint x="-332" y="1508" as="targetPoint" />
          </mxGeometry>
        </mxCell>
        <mxCell id="JLOfAjcvKryGRp9el4-2-56" value="" style="endArrow=none;html=1;rounded=0;exitX=0.5;exitY=0;exitDx=0;exitDy=0;" parent="1" source="JLOfAjcvKryGRp9el4-2-32" edge="1">
          <mxGeometry width="50" height="50" relative="1" as="geometry">
            <mxPoint x="-660" y="1541" as="sourcePoint" />
            <mxPoint x="-598" y="1512" as="targetPoint" />
          </mxGeometry>
        </mxCell>
        <mxCell id="JLOfAjcvKryGRp9el4-2-57" value="" style="endArrow=none;html=1;rounded=0;exitX=0.5;exitY=0;exitDx=0;exitDy=0;" parent="1" source="JLOfAjcvKryGRp9el4-2-33" edge="1">
          <mxGeometry width="50" height="50" relative="1" as="geometry">
            <mxPoint x="-547" y="1560" as="sourcePoint" />
            <mxPoint x="-547" y="1511" as="targetPoint" />
          </mxGeometry>
        </mxCell>
        <mxCell id="JLOfAjcvKryGRp9el4-2-58" value="" style="endArrow=none;html=1;rounded=0;exitX=0.5;exitY=0;exitDx=0;exitDy=0;" parent="1" source="JLOfAjcvKryGRp9el4-2-34" edge="1">
          <mxGeometry width="50" height="50" relative="1" as="geometry">
            <mxPoint x="-661" y="1466" as="sourcePoint" />
            <mxPoint x="-491" y="1511" as="targetPoint" />
          </mxGeometry>
        </mxCell>
        <mxCell id="JLOfAjcvKryGRp9el4-2-59" value="" style="endArrow=none;html=1;rounded=0;exitX=0.5;exitY=0;exitDx=0;exitDy=0;" parent="1" source="JLOfAjcvKryGRp9el4-2-35" edge="1">
          <mxGeometry width="50" height="50" relative="1" as="geometry">
            <mxPoint x="-321" y="1453" as="sourcePoint" />
            <mxPoint x="-432" y="1509" as="targetPoint" />
          </mxGeometry>
        </mxCell>
        <mxCell id="JLOfAjcvKryGRp9el4-2-60" value="" style="endArrow=none;html=1;rounded=0;exitX=0.5;exitY=0;exitDx=0;exitDy=0;" parent="1" source="JLOfAjcvKryGRp9el4-2-36" edge="1">
          <mxGeometry width="50" height="50" relative="1" as="geometry">
            <mxPoint x="-277" y="1445" as="sourcePoint" />
            <mxPoint x="-375" y="1511" as="targetPoint" />
          </mxGeometry>
        </mxCell>
        <mxCell id="JLOfAjcvKryGRp9el4-2-61" value="" style="endArrow=none;html=1;rounded=0;exitX=0.5;exitY=0;exitDx=0;exitDy=0;" parent="1" source="JLOfAjcvKryGRp9el4-2-37" edge="1">
          <mxGeometry width="50" height="50" relative="1" as="geometry">
            <mxPoint x="-283" y="1462" as="sourcePoint" />
            <mxPoint x="-321" y="1509" as="targetPoint" />
          </mxGeometry>
        </mxCell>
        <mxCell id="JLOfAjcvKryGRp9el4-2-62" value="" style="endArrow=none;html=1;rounded=0;exitX=0.5;exitY=0;exitDx=0;exitDy=0;" parent="1" source="JLOfAjcvKryGRp9el4-2-38" edge="1">
          <mxGeometry width="50" height="50" relative="1" as="geometry">
            <mxPoint x="-224" y="1462" as="sourcePoint" />
            <mxPoint x="-261" y="1509" as="targetPoint" />
          </mxGeometry>
        </mxCell>
        <mxCell id="JLOfAjcvKryGRp9el4-2-63" value="" style="endArrow=none;html=1;rounded=0;exitX=0.5;exitY=0;exitDx=0;exitDy=0;" parent="1" source="JLOfAjcvKryGRp9el4-2-39" edge="1">
          <mxGeometry width="50" height="50" relative="1" as="geometry">
            <mxPoint x="-190" y="1471" as="sourcePoint" />
            <mxPoint x="-204" y="1509" as="targetPoint" />
          </mxGeometry>
        </mxCell>
        <mxCell id="JLOfAjcvKryGRp9el4-2-64" value="" style="endArrow=none;html=1;rounded=0;exitX=0.5;exitY=0;exitDx=0;exitDy=0;" parent="1" source="JLOfAjcvKryGRp9el4-2-40" edge="1">
          <mxGeometry width="50" height="50" relative="1" as="geometry">
            <mxPoint x="-137" y="1466" as="sourcePoint" />
            <mxPoint x="-144" y="1508" as="targetPoint" />
          </mxGeometry>
        </mxCell>
        <mxCell id="JLOfAjcvKryGRp9el4-2-65" value="" style="endArrow=none;html=1;rounded=0;exitX=0.5;exitY=0;exitDx=0;exitDy=0;" parent="1" source="JLOfAjcvKryGRp9el4-2-41" edge="1">
          <mxGeometry width="50" height="50" relative="1" as="geometry">
            <mxPoint x="-140" y="1432" as="sourcePoint" />
            <mxPoint x="-93" y="1506" as="targetPoint" />
          </mxGeometry>
        </mxCell>
        <mxCell id="JLOfAjcvKryGRp9el4-2-67" value="" style="endArrow=none;html=1;rounded=0;exitX=0.5;exitY=1;exitDx=0;exitDy=0;" parent="1" source="JLOfAjcvKryGRp9el4-2-30" edge="1">
          <mxGeometry width="50" height="50" relative="1" as="geometry">
            <mxPoint x="122" y="1530" as="sourcePoint" />
            <mxPoint x="80" y="1505" as="targetPoint" />
          </mxGeometry>
        </mxCell>
        <mxCell id="JLOfAjcvKryGRp9el4-2-68" value="" style="endArrow=none;html=1;rounded=0;" parent="1" edge="1">
          <mxGeometry width="50" height="50" relative="1" as="geometry">
            <mxPoint x="-9" y="1505" as="sourcePoint" />
            <mxPoint x="300" y="1505" as="targetPoint" />
          </mxGeometry>
        </mxCell>
        <mxCell id="JLOfAjcvKryGRp9el4-2-69" value="" style="endArrow=none;html=1;rounded=0;exitX=0.5;exitY=0;exitDx=0;exitDy=0;" parent="1" source="JLOfAjcvKryGRp9el4-2-43" edge="1">
          <mxGeometry width="50" height="50" relative="1" as="geometry">
            <mxPoint x="88" y="1458" as="sourcePoint" />
            <mxPoint x="-9" y="1505" as="targetPoint" />
          </mxGeometry>
        </mxCell>
        <mxCell id="JLOfAjcvKryGRp9el4-2-70" value="" style="endArrow=none;html=1;rounded=0;exitX=0.5;exitY=0;exitDx=0;exitDy=0;" parent="1" source="JLOfAjcvKryGRp9el4-2-44" edge="1">
          <mxGeometry width="50" height="50" relative="1" as="geometry">
            <mxPoint x="97" y="1478" as="sourcePoint" />
            <mxPoint x="68" y="1505" as="targetPoint" />
          </mxGeometry>
        </mxCell>
        <mxCell id="JLOfAjcvKryGRp9el4-2-71" value="" style="endArrow=none;html=1;rounded=0;exitX=0.5;exitY=0;exitDx=0;exitDy=0;" parent="1" source="JLOfAjcvKryGRp9el4-2-45" edge="1">
          <mxGeometry width="50" height="50" relative="1" as="geometry">
            <mxPoint x="113" y="1450" as="sourcePoint" />
            <mxPoint x="124" y="1505" as="targetPoint" />
          </mxGeometry>
        </mxCell>
        <mxCell id="JLOfAjcvKryGRp9el4-2-72" value="" style="endArrow=none;html=1;rounded=0;exitX=0.5;exitY=0;exitDx=0;exitDy=0;" parent="1" source="JLOfAjcvKryGRp9el4-2-46" edge="1">
          <mxGeometry width="50" height="50" relative="1" as="geometry">
            <mxPoint x="215" y="1463" as="sourcePoint" />
            <mxPoint x="184" y="1505" as="targetPoint" />
          </mxGeometry>
        </mxCell>
        <mxCell id="JLOfAjcvKryGRp9el4-2-73" value="" style="endArrow=none;html=1;rounded=0;exitX=0.5;exitY=0;exitDx=0;exitDy=0;" parent="1" source="JLOfAjcvKryGRp9el4-2-47" edge="1">
          <mxGeometry width="50" height="50" relative="1" as="geometry">
            <mxPoint x="216" y="1466" as="sourcePoint" />
            <mxPoint x="241" y="1505" as="targetPoint" />
          </mxGeometry>
        </mxCell>
        <mxCell id="JLOfAjcvKryGRp9el4-2-74" value="" style="endArrow=none;html=1;rounded=0;exitX=0.5;exitY=0;exitDx=0;exitDy=0;" parent="1" source="JLOfAjcvKryGRp9el4-2-48" edge="1">
          <mxGeometry width="50" height="50" relative="1" as="geometry">
            <mxPoint x="298" y="1560" as="sourcePoint" />
            <mxPoint x="300" y="1505" as="targetPoint" />
          </mxGeometry>
        </mxCell>
        <mxCell id="JLOfAjcvKryGRp9el4-2-75" value="" style="endArrow=none;html=1;rounded=0;exitX=0.5;exitY=1;exitDx=0;exitDy=0;" parent="1" source="JLOfAjcvKryGRp9el4-2-31" edge="1">
          <mxGeometry width="50" height="50" relative="1" as="geometry">
            <mxPoint x="565" y="1456" as="sourcePoint" />
            <mxPoint x="419" y="1506" as="targetPoint" />
          </mxGeometry>
        </mxCell>
        <mxCell id="JLOfAjcvKryGRp9el4-2-76" value="" style="endArrow=none;html=1;rounded=0;" parent="1" edge="1">
          <mxGeometry width="50" height="50" relative="1" as="geometry">
            <mxPoint x="387" y="1507" as="sourcePoint" />
            <mxPoint x="540" y="1504" as="targetPoint" />
          </mxGeometry>
        </mxCell>
        <mxCell id="JLOfAjcvKryGRp9el4-2-77" value="" style="endArrow=none;html=1;rounded=0;entryX=0.5;entryY=0;entryDx=0;entryDy=0;" parent="1" target="JLOfAjcvKryGRp9el4-2-49" edge="1">
          <mxGeometry width="50" height="50" relative="1" as="geometry">
            <mxPoint x="387" y="1508" as="sourcePoint" />
            <mxPoint x="322" y="1694" as="targetPoint" />
          </mxGeometry>
        </mxCell>
        <mxCell id="JLOfAjcvKryGRp9el4-2-78" value="" style="endArrow=none;html=1;rounded=0;exitX=0.5;exitY=0;exitDx=0;exitDy=0;" parent="1" source="JLOfAjcvKryGRp9el4-2-50" edge="1">
          <mxGeometry width="50" height="50" relative="1" as="geometry">
            <mxPoint x="559" y="1436" as="sourcePoint" />
            <mxPoint x="463" y="1505" as="targetPoint" />
          </mxGeometry>
        </mxCell>
        <mxCell id="JLOfAjcvKryGRp9el4-2-79" value="" style="endArrow=none;html=1;rounded=0;exitX=0.5;exitY=0;exitDx=0;exitDy=0;" parent="1" source="JLOfAjcvKryGRp9el4-2-51" edge="1">
          <mxGeometry width="50" height="50" relative="1" as="geometry">
            <mxPoint x="614" y="1511" as="sourcePoint" />
            <mxPoint x="539" y="1505" as="targetPoint" />
          </mxGeometry>
        </mxCell>
      </root>
    </mxGraphModel>
  </diagram>
</mxfile>
